<svg xmlns="http://www.w3.org/2000/svg" width="222.282" height="222.282"><path d="M1864.497 680.95c-9.226.816-18.309 1.87-27 5.296-48.602 19.163-44 68.695-44 111.483 0 25.017-2.652 50.776 13.032 72.138 23.463 31.958 58.519 30.07 93.968 30.07 16.18 0 32.89 1.19 49-.4 8.248-.813 16.461-2.593 24-6.118 46.409-21.702 42-68.61 42-111.723 0-24.834 1.887-49.922-13.411-71.145-28.664-39.764-94.201-33.436-137.59-29.6m31 31.021c85.533-9.173 126.693 107.8 51 151.88-9.556 5.566-20 9.282-31 10.526-85.816 9.702-129.598-107.832-52-151.967 9.865-5.61 20.713-9.228 32-10.439m1 12.145c-10.506 1.31-21.07 4.58-29.999 10.364-61.56 39.866-24.818 136.614 47 127.846 9.987-1.22 19.36-4.448 28-9.624 63.436-38.003 27.442-137.62-45-128.586m8.073 7.471c4.149-.055 4.49 10.11.14 10.112-3.936.001-3.996-10.06-.14-10.112m-39.728 21.714c12.725-4 25.963 23.328 37.978 25.895 17.762 3.795 29.57-29.742 46.335-25.36 5.886 1.538 4.7 8.314 1.59 11.832-8.492 9.605-21.094 15.057-29.623 24.626-4.697 5.27-5.893 13.232-13.684 15.155-4.524 1.118-9.044-.78-12.079-4.179-10.173-11.392-21.252-23.427-31.34-35.246-3.07-3.597-5.521-10.728.823-12.723m-21.5 37.696c3.116-1.762 12.98 1.23 8.018 4.452-3.504 2.276-13.524-1.34-8.018-4.452m115.793-.255c3.896-1.631 13.175 2.427 6.724 5.053-3.835 1.56-13.225-2.33-6.724-5.053m-54.48 54.367c4.164-.633 4.737 9.696.623 10.286-4.288.615-4.608-9.68-.622-10.286z" style="fill:#32b9a4;fill-opacity:1;stroke:none;stroke-width:1.00102" transform="translate(-1793.328 -678.083)"/></svg>